<svg xmlns="http://www.w3.org/2000/svg" width="383.156" height="758.875"
        viewBox="0 0 383.156 758.875">
    <defs>
        <clipPath id="clip-path">
            <path id="Pfad_486" data-name="Pfad 486" d="M215,51.43H545.766V767H215Zm0,0" />
        </clipPath>
        <clipPath id="clip-path-2">
            <path id="Pfad_490" data-name="Pfad 490" d="M188.648,129H193v32h-4.352Zm0,0" />
        </clipPath>
        <clipPath id="clip-path-3">
            <path id="Pfad_492" data-name="Pfad 492" d="M188.648,183H193v58h-4.352Zm0,0" />
        </clipPath>
        <clipPath id="clip-path-4">
            <path id="Pfad_494" data-name="Pfad 494" d="M188.648,252H193v58h-4.352Zm0,0" />
        </clipPath>
        <clipPath id="clip-path-5">
            <path id="Pfad_496" data-name="Pfad 496" d="M567,202h4.8v92H567Zm0,0" />
        </clipPath>
        <clipPath id="clip-path-6">
            <path id="Pfad_498" data-name="Pfad 498" d="M192,29.109H568V787.984H192Zm0,0" />
        </clipPath>
    </defs>
    <g id="Design_ohne_Titel" data-name="Design ohne Titel" transform="translate(-188.648 -29.109)">
        <path id="Pfad_483" data-name="Pfad 483"
                d="M512.188,32.828H248.27A51.863,51.863,0,0,0,196.453,84.7V732.211a51.863,51.863,0,0,0,51.816,51.867H512.188A51.863,51.863,0,0,0,564,732.211V84.7A51.863,51.863,0,0,0,512.188,32.828Zm-87.852,23.8a4.648,4.648,0,1,1-4.641,4.648A4.717,4.717,0,0,1,424.336,56.625ZM355.8,58.113h44.574a3.16,3.16,0,0,1,0,6.32H355.8a3.16,3.16,0,0,1,0-6.32ZM545.059,735.188a30.686,30.686,0,0,1-30.645,30.672h-268a30.686,30.686,0,0,1-30.645-30.672V82.652a30.69,30.69,0,0,1,30.645-30.676h39.93v8.367a17.369,17.369,0,0,0,17.273,17.289H457.211a17.369,17.369,0,0,0,17.273-17.289V51.977H514.23a30.692,30.692,0,0,1,30.645,30.676V735.188Zm0,0" />
        <path id="Pfad_487" data-name="Pfad 487"
                d="M400.379,58.113H355.8a3.16,3.16,0,0,0,0,6.32h44.574a3.16,3.16,0,0,0,0-6.32Zm0,0"
                fill="#555" />
        <path id="Pfad_488" data-name="Pfad 488"
                d="M424.336,56.625a4.721,4.721,0,0,0-.906.09,4.647,4.647,0,0,0-.871.262,4.784,4.784,0,0,0-.8.43,5.019,5.019,0,0,0-.707.578,4.544,4.544,0,0,0-.574.707,4.158,4.158,0,0,0-.43.8,4.526,4.526,0,0,0-.266.875,4.616,4.616,0,0,0,0,1.813,4.489,4.489,0,0,0,.266.871,4.19,4.19,0,0,0,.43.8,4.667,4.667,0,0,0,2.082,1.711,4.66,4.66,0,0,0,.871.266,4.721,4.721,0,0,0,.906.09,4.66,4.66,0,0,0,.906-.09,4.61,4.61,0,0,0,.875-.266,4.608,4.608,0,0,0,2.082-1.711,4.19,4.19,0,0,0,.43-.8,4.489,4.489,0,0,0,.266-.871,4.616,4.616,0,0,0,0-1.812,4.526,4.526,0,0,0-.266-.875,4.384,4.384,0,0,0-.43-.8,4.544,4.544,0,0,0-.574-.707,5.019,5.019,0,0,0-.707-.578,4.784,4.784,0,0,0-.8-.43,4.6,4.6,0,0,0-.875-.262A4.66,4.66,0,0,0,424.336,56.625Zm0,0"
                fill="#555" />
        <g id="Gruppe_3" data-name="Gruppe 3" clip-path="url(#clip-path-2)">
            <path id="Pfad_489" data-name="Pfad 489"
                    d="M188.652,133.406v23.238a4.126,4.126,0,0,0,4.086,4.09V129.5A3.969,3.969,0,0,0,188.652,133.406Zm0,0"
                    fill="#2e2e2e" />
        </g>
        <g id="Gruppe_4" data-name="Gruppe 4" clip-path="url(#clip-path-3)">
            <path id="Pfad_491" data-name="Pfad 491"
                    d="M188.652,187.875v48.336a4.126,4.126,0,0,0,4.086,4.09V183.973A3.968,3.968,0,0,0,188.652,187.875Zm0,0"
                    fill="#2e2e2e" />
        </g>
        <g id="Gruppe_5" data-name="Gruppe 5" clip-path="url(#clip-path-4)">
            <path id="Pfad_493" data-name="Pfad 493"
                    d="M188.652,256.66V305a4.126,4.126,0,0,0,4.086,4.09V252.57A4.126,4.126,0,0,0,188.652,256.66Zm0,0"
                    fill="#2e2e2e" />
        </g>
        <g id="Gruppe_6" data-name="Gruppe 6" clip-path="url(#clip-path-5)">
            <path id="Pfad_495" data-name="Pfad 495"
                    d="M567.719,202.563V293.1a4.126,4.126,0,0,0,4.086-4.09V206.652A4.126,4.126,0,0,0,567.719,202.563Zm0,0"
                    fill="#2e2e2e" />
        </g>
        <g id="Gruppe_7" data-name="Gruppe 7" clip-path="url(#clip-path-6)">
            <path id="Pfad_497" data-name="Pfad 497"
                    d="M567.719,202.563V84.7A53.854,53.854,0,0,0,566.6,73.543c-.371-1.859-.742-3.531-1.3-5.391a54.5,54.5,0,0,0-2.973-7.625,37.058,37.058,0,0,0-2.6-4.645c-.926-1.488-1.855-2.977-2.973-4.465-1.668-2.23-3.34-4.09-5.2-6.133-1.3-1.3-2.6-2.418-3.9-3.531a54.987,54.987,0,0,0-35.289-12.645H248.27a55.635,55.635,0,0,0-35.285,12.645c-1.3,1.113-2.6,2.414-3.9,3.531a41.3,41.3,0,0,0-5.2,6.133c-1.113,1.488-2.043,2.977-2.973,4.465s-1.855,3.16-2.6,4.645a66.963,66.963,0,0,0-3.156,7.625c-.555,1.859-.93,3.531-1.3,5.391A55.469,55.469,0,0,0,192.738,84.7V732.211A55.589,55.589,0,0,0,248.27,787.8H512.188a55.589,55.589,0,0,0,55.531-55.586Zm-3.715,0V732.4a51.863,51.863,0,0,1-51.816,51.867H248.27A51.863,51.863,0,0,1,196.453,732.4V84.883A51.9,51.9,0,0,1,248.27,32.828H512.188A51.863,51.863,0,0,1,564,84.7Zm0,0"
                    fill="#555" />
        </g>
    </g>
</svg>
